# xmcd
#
# Track frame offsets: 
#        150
#        9199
#        24262
#        29107
#        46943
#        57585
#        72988
#        89048
#        109200
#        118430
#        147265
#        155903
#        171643
#        185577
#        207648
#
# Disc length: 3379 seconds
#
# Revision: 0
# Processed by: cddbd v1.5.2PL0 Copyright (c) Steve Scherf et al.
# Submitted via: ExactAudioCopy v1.1
#
DISCID=ed0d310f
DTITLE=Eccy - Floating Like Incense
DYEAR=2007
DGENRE=Hip-Hop
TTITLE0=Find Your Entrance (Intro)
TTITLE1=Imperial Capital (feat. Messiah The Fly)
TTITLE2=Sugar Lazed
TTITLE3=Cement of Lies (feat. Candle)
TTITLE4=Night Therapy
TTITLE5=Affluence feat. (Orokamonopotechi and Cypress Ueno)
TTITLE6=A Castle Town
TTITLE7=Blue Bird Classic (feat. haiiro and Y.O.G.)
TTITLE8=Whisper Words of Love
TTITLE9=Ultimate High (feat. Shing02)
TTITLE10=Butterfly Garden pt.2
TTITLE11=Symple Walker (feat. Matsu and Atom)
TTITLE12=The Daybreak (feat. Cinnabom)
TTITLE13=Monochrome Searchlight (feat. The Reservoir Voxx)
TTITLE14=Road Novel (feat. Eiichi Seino)
EXTD=
EXTT0=
EXTT1=
EXTT2=
EXTT3=
EXTT4=
EXTT5=
EXTT6=
EXTT7=
EXTT8=
EXTT9=
EXTT10=
EXTT11=
EXTT12=
EXTT13=
EXTT14=
PLAYORDER=
